<?xml version="1.0" encoding="UTF-8"?>
<svg width="32px" height="32px" viewBox="0 0 32 32" version="1.1" xmlns="http://www.w3.org/2000/svg" xmlns:xlink="http://www.w3.org/1999/xlink">
    <title>favicon</title>
    <g id="favicon" stroke="none" stroke-width="1" fill="none" fill-rule="evenodd">
        <rect fill="#FFFFFF" x="0" y="0" width="32" height="32"></rect>
        <path d="M23.1111111,4.08888889 C27.6132346,4.08888889 30.2222222,7.93502021 30.2222222,12.4266667 C30.2222222,17.1911111 25.4814815,22.3525926 16,27.9111111 C6.51851852,22.3525926 1.77777778,17.085451 1.77777778,12.1096861 C1.77777778,7.61803969 4.38676543,4.08888889 8.88888889,4.08888889 C11.4322963,4.08888889 14.406716,6.98667506 16,8.85333333 C17.593284,6.98667506 20.5677037,4.08888889 23.1111111,4.08888889 Z M17.2851008,11.2355556 L14.2878879,11.2355556 C14.002197,11.2355556 13.7642907,11.329998 13.574169,11.5193879 C13.3835389,11.7082728 13.2884781,11.9446314 13.2884781,12.2284638 L13.2884781,12.2284638 L13.2884781,18.1838931 C13.2884781,18.4672204 13.3835389,18.703579 13.574169,18.892969 C13.7642907,19.0818539 14.002197,19.1762963 14.2878879,19.1762963 L14.2878879,19.1762963 L17.2845924,19.1762963 L17.2845924,17.7586496 L14.7154076,17.7586496 L14.7154076,15.9152543 L16.2851826,15.9152543 L16.2851826,14.4971026 L14.7154076,14.4971026 L14.7154076,12.6537073 L17.2851008,12.6537073 L17.2851008,11.2355556 Z M10.3822593,11.2355556 L8.09876543,11.2355556 L8.09876543,19.1762963 L10.3370165,19.1762963 C11.0334516,19.1762963 11.5946665,18.9646846 12.0206611,18.5409562 C12.4512309,18.1136926 12.6662616,17.5692597 12.6662616,16.9076575 L12.6662616,16.9076575 L12.6662616,13.5046994 C12.6662616,12.8425922 12.4512309,12.3001794 12.0211695,11.8769561 C11.5946665,11.4491874 11.0481937,11.2355556 10.3822593,11.2355556 L10.3822593,11.2355556 Z M19.4776006,11.2355556 L17.9073173,11.2355556 L19.7627831,18.1838931 C20.048474,18.8454952 20.4287175,19.1762963 20.9045301,19.1762963 C21.3803427,19.1762963 21.7610945,18.8454952 22.0457687,18.1838931 L22.0457687,18.1838931 L23.9012346,11.2355556 L22.3319679,11.2355556 L20.9045301,16.6920055 L19.4776006,11.2355556 Z M10.3827677,12.6537073 C10.5728894,12.6537073 10.7630111,12.725423 10.9531328,12.8693593 C11.1437629,13.0092553 11.2388237,13.220867 11.2388237,13.5046994 L11.2388237,13.5046994 L11.2388237,16.9071525 C11.2388237,17.1909849 11.1437629,17.4046167 10.9531328,17.548553 C10.7635194,17.6884491 10.5728894,17.7581445 10.3822593,17.7581445 L10.3822593,17.7581445 L9.52620329,17.7581445 L9.52620329,12.6537073 Z" fill="#141F8A" fill-rule="nonzero"></path>
    </g>
</svg>