<?xml version="1.0" encoding="UTF-8"?>
<svg width="512px" height="512px" viewBox="0 0 512 512" version="1.1" xmlns="http://www.w3.org/2000/svg" xmlns:xlink="http://www.w3.org/1999/xlink">
    <title>safari-pinned-tab</title>
    <g id="safari-pinned-tab" stroke="none" stroke-width="1" fill="none" fill-rule="evenodd">
        <rect fill="#FFFFFF" x="0" y="0" width="512" height="512"></rect>
        <path d="M134.603723,201.392141 C136.348546,201.392141 137.918886,200.673617 139.314744,199.236568 L139.314744,199.236568 L160.252612,184.686447 C217.482785,181.453087 265.465399,179.117883 304.200456,177.680834 L304.200456,177.680834 L394.233289,173.369687 C399.118791,172.651163 401.561543,170.495589 401.561543,166.902967 C401.561543,166.543705 401.212578,165.286287 400.514649,163.130714 L400.514649,163.130714 L393.186395,147.502807 L393.186395,56.4298316 L396.327076,51.5797915 C397.025005,50.1427426 397.199487,48.7056937 396.850522,47.2686447 C396.501558,45.8315958 395.629147,44.7538091 394.233289,44.0352847 L394.233289,44.0352847 L374.342314,32.7185245 C372.946456,32 371.463357,31.8203689 369.893017,32.1796311 C368.322677,32.5388933 367.188542,33.4370489 366.490613,34.8740978 L366.490613,34.8740978 L359.16236,45.1130714 C311.354227,48.7056937 243.306156,51.7594226 155.018145,54.2742582 L155.018145,54.2742582 L138.791297,45.6519647 C135.999581,44.2149158 133.818553,44.0352847 132.248213,45.1130714 C130.677873,46.1908581 129.892703,48.5260626 129.892703,52.1186848 L129.892703,52.1186848 L129.892703,193.308741 C129.892703,195.823577 130.328908,197.799519 131.20132,199.236568 C132.073731,200.673617 133.207865,201.392141 134.603723,201.392141 Z M163.916739,158.280674 L163.916739,132.413793 C203.698688,129.898957 244.876496,127.923015 287.450161,126.485966 L287.450161,126.485966 L354.451339,123.252606 L341.888618,97.3857257 C302.455633,100.259824 243.131673,103.313553 163.916739,106.546913 L163.916739,106.546913 L163.916739,79.6022454 L249.761998,76.3688853 L359.16236,71.5188452 L359.16236,148.580593 C278.202603,153.610265 213.120729,156.843625 163.916739,158.280674 L163.916739,158.280674 Z M417.264944,480 C422.150446,480 426.512502,478.024058 430.351111,474.072173 C433.840756,469.401764 435.585579,464.372093 435.585579,458.98316 C435.585579,454.312751 433.666274,449.103448 429.827665,443.355253 L429.827665,443.355253 L448.671746,398.088212 C451.114497,393.05854 452.335873,389.106656 452.335873,386.232558 C452.335873,385.154771 451.986909,384.615878 451.28898,384.615878 C449.893122,384.615878 446.752442,387.310345 441.866939,392.699278 L441.866939,392.699278 L424.593198,413.716119 C419.707695,419.823577 414.124264,422.877306 407.842903,422.877306 C400.863614,422.877306 395.280182,418.925421 391.092609,411.021652 L391.092609,411.021652 L390.045715,409.943865 C384.811248,402.758621 378.70437,393.956696 371.725081,383.538091 C387.777446,366.652767 406.098081,342.582197 426.686985,311.326383 L426.686985,311.326383 L435.585579,307.55413 C438.726259,305.757819 440.296599,303.602245 440.296599,301.08741 C440.296599,299.291099 439.773152,297.674419 438.726259,296.23737 L438.726259,296.23737 L420.405624,272.526063 C419.009766,270.370489 417.439426,269.292702 415.694604,269.292702 C413.600817,269.292702 411.681512,270.729751 409.93669,273.603849 C390.743644,307.733761 372.946456,335.03769 356.545126,355.515638 C344.33137,330.008019 334.2114,298.572574 326.185217,261.209302 L326.185217,261.209302 L406.272563,256.359262 C410.809101,256 413.07737,254.024058 413.07737,250.431435 L413.07737,250.431435 L412.030477,246.120289 L406.272563,233.725742 C405.923599,232.647955 405.22567,231.7498 404.178776,231.031275 C403.131883,230.312751 402.084989,229.953488 401.038096,229.953488 L401.038096,229.953488 L399.991203,229.953488 L321.474197,234.803528 L317.286623,208.397755 L320.95075,198.158781 C321.648679,195.643945 321.561438,193.488372 320.689027,191.692061 C319.816616,189.89575 318.159034,188.817963 315.716283,188.458701 L315.716283,188.458701 L290.067395,185.764234 C287.973608,185.404972 286.316026,185.85405 285.094651,187.111468 C283.873275,188.368885 283.262587,190.255012 283.262587,192.769848 L283.262587,192.769848 L283.262587,193.847634 C284.309481,202.82919 285.879821,212.52927 287.973608,222.947875 L287.973608,222.947875 L290.067395,236.959102 L125.705129,245.581395 L100.056241,234.264635 C97.2645249,232.827586 95.083497,232.737771 93.5131569,233.995188 C91.9428167,235.252606 91.1576467,237.497995 91.1576467,240.731355 L91.1576467,240.731355 L91.6810934,295.698476 C90.6342,345.995188 82.4335349,398.447474 67.0790983,453.055333 C63.5894536,465.988773 63.0660069,472.455493 65.5087581,472.455493 C67.9515094,472.455493 71.7901186,467.964715 77.0245857,458.98316 C98.3114183,424.134723 112.444479,388.747394 119.423769,352.821171 C129.892703,351.743384 144.025764,350.665597 161.822952,349.587811 L161.822952,349.587811 L201.081455,346.893344 L200.558008,414.255012 L184.854607,414.255012 C181.713927,414.255012 180.143587,414.973536 180.143587,416.410585 C180.143587,417.847634 180.841515,419.284683 182.237373,420.721732 C183.633231,422.518043 185.378054,425.571772 187.47184,429.882919 C189.565627,435.990377 190.787003,441.918204 191.135967,447.666399 C191.135967,451.977546 193.055272,454.133119 196.893881,454.133119 L196.893881,454.133119 L198.464221,454.133119 C222.193805,447.666399 233.884115,429.882919 233.53515,400.782678 L233.53515,400.782678 L234.058597,337.732157 L239.816511,328.57097 C242.259262,324.978348 241.735815,321.744988 238.246171,318.87089 L238.246171,318.87089 L218.355196,302.165196 C217.308303,301.08741 215.999686,300.548516 214.429346,300.548516 C212.859006,300.548516 211.550389,301.267041 210.503495,302.70409 L210.503495,302.70409 L194.276648,321.026464 L123.087896,327.493184 C124.483754,317.074579 125.181683,303.961508 125.181683,288.15397 L125.181683,288.15397 L125.181683,273.064956 L211.550389,268.214916 L295.825308,262.825982 C304.54942,309.530072 317.112141,349.048917 333.513471,381.382518 C313.971461,401.501203 286.228785,424.134723 250.285445,449.283079 C243.65512,453.594226 239.205823,457.097033 236.937554,459.7915 C234.669285,462.485966 234.756526,463.8332 237.199277,463.8332 C241.037887,463.8332 249.238552,461.138733 261.801272,455.7498 C274.363993,450.360866 284.309481,445.870088 291.637735,442.277466 C313.622496,431.140337 332.292095,419.105052 347.646532,406.171612 C363.349933,432.038492 382.368497,454.851644 404.702223,474.611067 C407.842903,478.203689 412.030477,480 417.264944,480 Z M439.249705,249.353649 L445.007619,247.736969 L446.054513,247.736969 C448.846228,246.29992 451.201739,243.695269 453.121043,239.923015 C455.040348,236.150762 456,232.468324 456,228.875702 C456,220.61267 451.812426,213.33761 443.437279,207.050521 C435.062132,200.763432 425.814573,195.643945 415.694604,191.692061 C413.600817,190.614274 411.681512,190.075381 409.93669,190.075381 C407.493939,190.075381 406.272563,191.51243 406.272563,194.386528 C406.272563,196.542101 406.970492,199.056937 408.36635,201.931034 C416.043568,217.020048 421.627,229.594226 425.116644,239.653569 C426.512502,242.886929 428.257325,245.222133 430.351111,246.659182 C432.444898,248.455493 435.411096,249.353649 439.249705,249.353649 L439.249705,249.353649 Z" id="晟" fill="#141F8A" fill-rule="nonzero"></path>
    </g>
</svg>